<mxfile host="app.diagrams.net" modified="2021-04-14T23:49:24.777Z" agent="5.0 (Windows NT 10.0; Win64; x64) AppleWebKit/537.36 (KHTML, like Gecko) Chrome/89.0.4389.114 Safari/537.36" etag="zVBpdEglRi9ebZReb20T" version="14.6.0" type="github">
  <diagram name="Page-1" id="58cdce13-f638-feb5-8d6f-7d28b1aa9fa0">
    <mxGraphModel dx="2015" dy="1045" grid="1" gridSize="10" guides="1" tooltips="1" connect="1" arrows="1" fold="1" page="1" pageScale="1" pageWidth="1169" pageHeight="827" background="#ffffff" math="0" shadow="0">
      <root>
        <mxCell id="0" />
        <mxCell id="1" parent="0" />
        <mxCell id="382b91b5511bd0f7-1" value="" style="ellipse;html=1;shape=startState;fillColor=#000000;strokeColor=#ff0000;rounded=1;shadow=0;comic=0;labelBackgroundColor=none;fontFamily=Verdana;fontSize=12;fontColor=#000000;align=center;direction=south;" parent="1" vertex="1">
          <mxGeometry x="50" y="50" width="30" height="30" as="geometry" />
        </mxCell>
        <mxCell id="2a3bc250acf0617d-9" style="html=1;labelBackgroundColor=none;endArrow=open;endSize=8;strokeColor=#ff0000;fontFamily=Verdana;fontSize=12;align=left;" parent="1" source="382b91b5511bd0f7-1" edge="1">
          <mxGeometry relative="1" as="geometry">
            <mxPoint x="140" y="110" as="targetPoint" />
          </mxGeometry>
        </mxCell>
        <mxCell id="Be6lSzht7YguLda0xwmB-3" style="edgeStyle=orthogonalEdgeStyle;rounded=0;orthogonalLoop=1;jettySize=auto;html=1;exitX=1;exitY=0.5;exitDx=0;exitDy=0;" edge="1" parent="1" source="xssw3f7ktqk-VE-2RlWA-73">
          <mxGeometry relative="1" as="geometry">
            <mxPoint x="220" y="210" as="targetPoint" />
          </mxGeometry>
        </mxCell>
        <mxCell id="xssw3f7ktqk-VE-2RlWA-73" value="Session" style="whiteSpace=wrap;html=1;fillColor=#ffffff;gradientColor=none;rounded=1;" parent="1" vertex="1">
          <mxGeometry x="130" y="110" width="120" height="60" as="geometry" />
        </mxCell>
        <mxCell id="xssw3f7ktqk-VE-2RlWA-80" style="edgeStyle=orthogonalEdgeStyle;rounded=0;orthogonalLoop=1;jettySize=auto;html=1;exitX=1;exitY=0.5;exitDx=0;exitDy=0;endArrow=classic;endFill=1;strokeColor=#000000;entryX=0;entryY=0.5;entryDx=0;entryDy=0;" parent="1" source="xssw3f7ktqk-VE-2RlWA-76" target="xssw3f7ktqk-VE-2RlWA-84" edge="1">
          <mxGeometry relative="1" as="geometry">
            <mxPoint x="480" y="220" as="targetPoint" />
            <Array as="points">
              <mxPoint x="480" y="250" />
            </Array>
          </mxGeometry>
        </mxCell>
        <mxCell id="xssw3f7ktqk-VE-2RlWA-82" style="edgeStyle=orthogonalEdgeStyle;rounded=0;orthogonalLoop=1;jettySize=auto;html=1;exitX=0.25;exitY=0;exitDx=0;exitDy=0;endArrow=classic;endFill=1;strokeColor=#000000;entryX=0;entryY=0.5;entryDx=0;entryDy=0;" parent="1" source="xssw3f7ktqk-VE-2RlWA-76" target="xssw3f7ktqk-VE-2RlWA-76" edge="1">
          <mxGeometry relative="1" as="geometry">
            <mxPoint x="40" y="220" as="targetPoint" />
            <Array as="points">
              <mxPoint x="95" y="190" />
              <mxPoint x="30" y="190" />
              <mxPoint x="30" y="260" />
              <mxPoint x="40" y="260" />
              <mxPoint x="40" y="250" />
            </Array>
          </mxGeometry>
        </mxCell>
        <mxCell id="xssw3f7ktqk-VE-2RlWA-76" value="BaggingAreaListenerSoftware&lt;br&gt;electronicScaleListener" style="whiteSpace=wrap;html=1;rounded=1;fillColor=#ffffff;gradientColor=none;arcSize=16;" parent="1" vertex="1">
          <mxGeometry x="50" y="210" width="180" height="80" as="geometry" />
        </mxCell>
        <mxCell id="xssw3f7ktqk-VE-2RlWA-77" value="registerListeners()" style="text;html=1;align=center;verticalAlign=middle;resizable=0;points=[];autosize=1;strokeColor=none;rotation=-90;" parent="1" vertex="1">
          <mxGeometry x="230" y="130" width="110" height="20" as="geometry" />
        </mxCell>
        <mxCell id="xssw3f7ktqk-VE-2RlWA-79" value="selfCheckoutStation.baggingAreaRegister(electronicScaleListener)" style="text;html=1;align=center;verticalAlign=middle;resizable=0;points=[];autosize=1;strokeColor=none;rotation=-90;" parent="1" vertex="1">
          <mxGeometry x="-167.5" y="270" width="370" height="20" as="geometry" />
        </mxCell>
        <mxCell id="xssw3f7ktqk-VE-2RlWA-81" value="checkConform(ElectronicScale scale,&amp;nbsp;&lt;br&gt;Item item1, Item item2)" style="text;html=1;align=center;verticalAlign=middle;resizable=0;points=[];autosize=1;strokeColor=none;" parent="1" vertex="1">
          <mxGeometry x="240" y="220" width="220" height="30" as="geometry" />
        </mxCell>
        <mxCell id="xssw3f7ktqk-VE-2RlWA-95" style="edgeStyle=orthogonalEdgeStyle;rounded=0;orthogonalLoop=1;jettySize=auto;html=1;exitX=1;exitY=0.75;exitDx=0;exitDy=0;endArrow=classic;endFill=1;strokeColor=#000000;entryX=0.25;entryY=0;entryDx=0;entryDy=0;" parent="1" source="xssw3f7ktqk-VE-2RlWA-83" target="xssw3f7ktqk-VE-2RlWA-97" edge="1">
          <mxGeometry relative="1" as="geometry">
            <mxPoint x="830" y="195" as="targetPoint" />
          </mxGeometry>
        </mxCell>
        <mxCell id="xssw3f7ktqk-VE-2RlWA-83" value="the item which is scanned" style="whiteSpace=wrap;html=1;rounded=1;fillColor=#ffffff;gradientColor=none;" parent="1" vertex="1">
          <mxGeometry x="640" y="150" width="120" height="60" as="geometry" />
        </mxCell>
        <mxCell id="xssw3f7ktqk-VE-2RlWA-85" style="edgeStyle=orthogonalEdgeStyle;rounded=0;orthogonalLoop=1;jettySize=auto;html=1;exitX=0.5;exitY=0;exitDx=0;exitDy=0;endArrow=classic;endFill=1;strokeColor=#000000;entryX=0;entryY=0.5;entryDx=0;entryDy=0;" parent="1" source="xssw3f7ktqk-VE-2RlWA-84" target="xssw3f7ktqk-VE-2RlWA-83" edge="1">
          <mxGeometry relative="1" as="geometry">
            <mxPoint x="610" y="180" as="targetPoint" />
            <Array as="points">
              <mxPoint x="520" y="180" />
            </Array>
          </mxGeometry>
        </mxCell>
        <mxCell id="xssw3f7ktqk-VE-2RlWA-86" style="edgeStyle=orthogonalEdgeStyle;rounded=0;orthogonalLoop=1;jettySize=auto;html=1;exitX=0.5;exitY=1;exitDx=0;exitDy=0;endArrow=classic;endFill=1;strokeColor=#000000;entryX=0;entryY=0.5;entryDx=0;entryDy=0;" parent="1" source="xssw3f7ktqk-VE-2RlWA-84" target="xssw3f7ktqk-VE-2RlWA-87" edge="1">
          <mxGeometry relative="1" as="geometry">
            <mxPoint x="630" y="310" as="targetPoint" />
            <Array as="points">
              <mxPoint x="520" y="310" />
            </Array>
          </mxGeometry>
        </mxCell>
        <mxCell id="xssw3f7ktqk-VE-2RlWA-84" value="" style="rhombus;whiteSpace=wrap;html=1;rounded=1;fillColor=#ffffff;gradientColor=none;" parent="1" vertex="1">
          <mxGeometry x="480" y="210" width="80" height="80" as="geometry" />
        </mxCell>
        <mxCell id="xssw3f7ktqk-VE-2RlWA-98" style="edgeStyle=orthogonalEdgeStyle;rounded=0;orthogonalLoop=1;jettySize=auto;html=1;exitX=1;exitY=0.5;exitDx=0;exitDy=0;endArrow=classic;endFill=1;strokeColor=#000000;entryX=0.25;entryY=1;entryDx=0;entryDy=0;" parent="1" source="xssw3f7ktqk-VE-2RlWA-87" target="xssw3f7ktqk-VE-2RlWA-97" edge="1">
          <mxGeometry relative="1" as="geometry">
            <mxPoint x="840" y="310" as="targetPoint" />
          </mxGeometry>
        </mxCell>
        <mxCell id="xssw3f7ktqk-VE-2RlWA-87" value="the item which is added" style="whiteSpace=wrap;html=1;rounded=1;fillColor=#ffffff;gradientColor=none;" parent="1" vertex="1">
          <mxGeometry x="640" y="280" width="120" height="60" as="geometry" />
        </mxCell>
        <mxCell id="xssw3f7ktqk-VE-2RlWA-92" value="item1.getWeight()" style="text;html=1;align=center;verticalAlign=middle;resizable=0;points=[];autosize=1;strokeColor=none;" parent="1" vertex="1">
          <mxGeometry x="515" y="160" width="110" height="20" as="geometry" />
        </mxCell>
        <mxCell id="xssw3f7ktqk-VE-2RlWA-101" style="edgeStyle=orthogonalEdgeStyle;rounded=0;orthogonalLoop=1;jettySize=auto;html=1;exitX=0.75;exitY=0;exitDx=0;exitDy=0;endArrow=classic;endFill=1;strokeColor=#000000;entryX=1;entryY=0.5;entryDx=0;entryDy=0;" parent="1" source="xssw3f7ktqk-VE-2RlWA-97" target="xssw3f7ktqk-VE-2RlWA-97" edge="1">
          <mxGeometry relative="1" as="geometry">
            <mxPoint x="966" y="170" as="targetPoint" />
          </mxGeometry>
        </mxCell>
        <mxCell id="s9yy3590e8Yyd1TPge8H-1" style="edgeStyle=orthogonalEdgeStyle;rounded=0;orthogonalLoop=1;jettySize=auto;html=1;exitX=0.75;exitY=1;exitDx=0;exitDy=0;entryX=0.5;entryY=1;entryDx=0;entryDy=0;" parent="1" source="xssw3f7ktqk-VE-2RlWA-97" target="xssw3f7ktqk-VE-2RlWA-76" edge="1">
          <mxGeometry relative="1" as="geometry">
            <Array as="points">
              <mxPoint x="966.5" y="347.5" />
              <mxPoint x="140.5" y="347.5" />
            </Array>
          </mxGeometry>
        </mxCell>
        <mxCell id="xssw3f7ktqk-VE-2RlWA-97" value="check if the item added and the item scanned have the same weight" style="whiteSpace=wrap;html=1;rounded=1;fillColor=#ffffff;gradientColor=none;" parent="1" vertex="1">
          <mxGeometry x="805" y="220" width="215" height="60" as="geometry" />
        </mxCell>
        <mxCell id="xssw3f7ktqk-VE-2RlWA-102" value="return false" style="text;html=1;align=center;verticalAlign=middle;resizable=0;points=[];autosize=1;strokeColor=none;" parent="1" vertex="1">
          <mxGeometry x="972.5" y="180" width="80" height="20" as="geometry" />
        </mxCell>
        <mxCell id="s9yy3590e8Yyd1TPge8H-8" style="edgeStyle=orthogonalEdgeStyle;rounded=0;orthogonalLoop=1;jettySize=auto;html=1;exitX=0.5;exitY=0;exitDx=0;exitDy=0;" parent="1" source="s9yy3590e8Yyd1TPge8H-6" target="s9yy3590e8Yyd1TPge8H-9" edge="1">
          <mxGeometry relative="1" as="geometry">
            <mxPoint x="165" y="470" as="targetPoint" />
          </mxGeometry>
        </mxCell>
        <mxCell id="s9yy3590e8Yyd1TPge8H-6" value="" style="ellipse;html=1;shape=startState;fillColor=#000000;strokeColor=#ff0000;rounded=1;shadow=0;comic=0;labelBackgroundColor=none;fontFamily=Verdana;fontSize=12;fontColor=#000000;align=center;direction=south;" parent="1" vertex="1">
          <mxGeometry x="85" y="410" width="30" height="30" as="geometry" />
        </mxCell>
        <mxCell id="s9yy3590e8Yyd1TPge8H-10" style="edgeStyle=orthogonalEdgeStyle;rounded=0;orthogonalLoop=1;jettySize=auto;html=1;exitX=1;exitY=0.5;exitDx=0;exitDy=0;" parent="1" source="s9yy3590e8Yyd1TPge8H-9" edge="1">
          <mxGeometry relative="1" as="geometry">
            <mxPoint x="385" y="490.2941176470588" as="targetPoint" />
          </mxGeometry>
        </mxCell>
        <mxCell id="s9yy3590e8Yyd1TPge8H-11" style="edgeStyle=orthogonalEdgeStyle;rounded=0;orthogonalLoop=1;jettySize=auto;html=1;exitX=0.5;exitY=1;exitDx=0;exitDy=0;entryX=0.5;entryY=0;entryDx=0;entryDy=0;" parent="1" source="s9yy3590e8Yyd1TPge8H-9" target="s9yy3590e8Yyd1TPge8H-14" edge="1">
          <mxGeometry relative="1" as="geometry">
            <mxPoint x="165.17647058823536" y="630" as="targetPoint" />
          </mxGeometry>
        </mxCell>
        <mxCell id="s9yy3590e8Yyd1TPge8H-9" value="StationUsage" style="rounded=1;whiteSpace=wrap;html=1;" parent="1" vertex="1">
          <mxGeometry x="105" y="460" width="120" height="60" as="geometry" />
        </mxCell>
        <mxCell id="s9yy3590e8Yyd1TPge8H-18" style="edgeStyle=orthogonalEdgeStyle;rounded=0;orthogonalLoop=1;jettySize=auto;html=1;exitX=1;exitY=0.5;exitDx=0;exitDy=0;entryX=0;entryY=0.5;entryDx=0;entryDy=0;" parent="1" source="s9yy3590e8Yyd1TPge8H-13" target="s9yy3590e8Yyd1TPge8H-17" edge="1">
          <mxGeometry relative="1" as="geometry" />
        </mxCell>
        <mxCell id="s9yy3590e8Yyd1TPge8H-13" value="The machine is low on paper&lt;span style=&quot;color: rgba(0 , 0 , 0 , 0) ; font-family: monospace ; font-size: 0px&quot;&gt;%3CmxGraphModel%3E%3Croot%3E%3CmxCell%20id%3D%220%22%2F%3E%3CmxCell%20id%3D%221%22%20parent%3D%220%22%2F%3E%3CmxCell%20id%3D%222%22%20value%3D%22%22%20style%3D%22ellipse%3Bhtml%3D1%3Bshape%3DstartState%3BfillColor%3D%23000000%3BstrokeColor%3D%23ff0000%3Brounded%3D1%3Bshadow%3D0%3Bcomic%3D0%3BlabelBackgroundColor%3Dnone%3BfontFamily%3DVerdana%3BfontSize%3D12%3BfontColor%3D%23000000%3Balign%3Dcenter%3Bdirection%3Dsouth%3B%22%20vertex%3D%221%22%20parent%3D%221%22%3E%3CmxGeometry%20x%3D%2250%22%20y%3D%2250%22%20width%3D%2230%22%20height%3D%2230%22%20as%3D%22geometry%22%2F%3E%3C%2FmxCell%3E%3C%2Froot%3E%3C%2FmxGraphModel%3E&lt;/span&gt;" style="rounded=1;whiteSpace=wrap;html=1;" parent="1" vertex="1">
          <mxGeometry x="385" y="460" width="120" height="60" as="geometry" />
        </mxCell>
        <mxCell id="s9yy3590e8Yyd1TPge8H-15" style="edgeStyle=orthogonalEdgeStyle;rounded=0;orthogonalLoop=1;jettySize=auto;html=1;exitX=1;exitY=0.5;exitDx=0;exitDy=0;entryX=0;entryY=0.5;entryDx=0;entryDy=0;" parent="1" source="s9yy3590e8Yyd1TPge8H-14" target="s9yy3590e8Yyd1TPge8H-16" edge="1">
          <mxGeometry relative="1" as="geometry">
            <mxPoint x="405" y="720.7058823529412" as="targetPoint" />
          </mxGeometry>
        </mxCell>
        <mxCell id="s9yy3590e8Yyd1TPge8H-14" value="The machine is low on ink&lt;span style=&quot;color: rgba(0 , 0 , 0 , 0) ; font-family: monospace ; font-size: 0px&quot;&gt;%3CmxGraphModel%3E%3Croot%3E%3CmxCell%20id%3D%220%22%2F%3E%3CmxCell%20id%3D%221%22%20parent%3D%220%22%2F%3E%3CmxCell%20id%3D%222%22%20value%3D%22%22%20style%3D%22ellipse%3Bhtml%3D1%3Bshape%3DstartState%3BfillColor%3D%23000000%3BstrokeColor%3D%23ff0000%3Brounded%3D1%3Bshadow%3D0%3Bcomic%3D0%3BlabelBackgroundColor%3Dnone%3BfontFamily%3DVerdana%3BfontSize%3D12%3BfontColor%3D%23000000%3Balign%3Dcenter%3Bdirection%3Dsouth%3B%22%20vertex%3D%221%22%20parent%3D%221%22%3E%3CmxGeometry%20x%3D%2250%22%20y%3D%2250%22%20width%3D%2230%22%20height%3D%2230%22%20as%3D%22geometry%22%2F%3E%3C%2FmxCell%3E%3C%2Froot%3E%3C%2FmxGraphModel%3E&lt;/span&gt;" style="rounded=1;whiteSpace=wrap;html=1;" parent="1" vertex="1">
          <mxGeometry x="105" y="691" width="120" height="60" as="geometry" />
        </mxCell>
        <mxCell id="s9yy3590e8Yyd1TPge8H-23" style="edgeStyle=orthogonalEdgeStyle;rounded=0;orthogonalLoop=1;jettySize=auto;html=1;exitX=0.5;exitY=1;exitDx=0;exitDy=0;entryX=0.5;entryY=1;entryDx=0;entryDy=0;" parent="1" source="s9yy3590e8Yyd1TPge8H-16" target="s9yy3590e8Yyd1TPge8H-14" edge="1">
          <mxGeometry relative="1" as="geometry" />
        </mxCell>
        <mxCell id="s9yy3590e8Yyd1TPge8H-16" value="machine has adequate amount of paper" style="rounded=1;whiteSpace=wrap;html=1;" parent="1" vertex="1">
          <mxGeometry x="630" y="691" width="120" height="60" as="geometry" />
        </mxCell>
        <mxCell id="s9yy3590e8Yyd1TPge8H-19" style="edgeStyle=orthogonalEdgeStyle;rounded=0;orthogonalLoop=1;jettySize=auto;html=1;exitX=0.5;exitY=0;exitDx=0;exitDy=0;entryX=0.5;entryY=0;entryDx=0;entryDy=0;" parent="1" source="s9yy3590e8Yyd1TPge8H-17" target="s9yy3590e8Yyd1TPge8H-13" edge="1">
          <mxGeometry relative="1" as="geometry">
            <mxPoint x="445" y="410" as="targetPoint" />
          </mxGeometry>
        </mxCell>
        <mxCell id="s9yy3590e8Yyd1TPge8H-17" value="machine has adequate amount of paper" style="rounded=1;whiteSpace=wrap;html=1;" parent="1" vertex="1">
          <mxGeometry x="865" y="460" width="120" height="60" as="geometry" />
        </mxCell>
        <mxCell id="s9yy3590e8Yyd1TPge8H-20" value="setLinesOfPaperRemaining(int quantity)" style="text;html=1;align=center;verticalAlign=middle;resizable=0;points=[];autosize=1;strokeColor=none;" parent="1" vertex="1">
          <mxGeometry x="555" y="490" width="230" height="20" as="geometry" />
        </mxCell>
        <mxCell id="s9yy3590e8Yyd1TPge8H-21" value="not enough paper for the next customer" style="text;html=1;align=center;verticalAlign=middle;resizable=0;points=[];autosize=1;strokeColor=none;" parent="1" vertex="1">
          <mxGeometry x="575" y="420" width="230" height="20" as="geometry" />
        </mxCell>
        <mxCell id="s9yy3590e8Yyd1TPge8H-24" value="setCharactersOfInkRemaining(int quantity)" style="text;whiteSpace=wrap;html=1;" parent="1" vertex="1">
          <mxGeometry x="315" y="771" width="250" height="30" as="geometry" />
        </mxCell>
        <mxCell id="s9yy3590e8Yyd1TPge8H-26" value="not enough ink for the next customer" style="text;html=1;align=center;verticalAlign=middle;resizable=0;points=[];autosize=1;strokeColor=none;" parent="1" vertex="1">
          <mxGeometry x="325" y="701" width="210" height="20" as="geometry" />
        </mxCell>
        <mxCell id="s9yy3590e8Yyd1TPge8H-27" value="receiptPrinterNeedsPaper()" style="text;html=1;align=center;verticalAlign=middle;resizable=0;points=[];autosize=1;strokeColor=none;" parent="1" vertex="1">
          <mxGeometry x="225" y="470" width="160" height="20" as="geometry" />
        </mxCell>
        <mxCell id="s9yy3590e8Yyd1TPge8H-29" value="receiptPrinterNeedsInk()" style="text;whiteSpace=wrap;html=1;rotation=-90;" parent="1" vertex="1">
          <mxGeometry x="70" y="590" width="150" height="30" as="geometry" />
        </mxCell>
        <mxCell id="Be6lSzht7YguLda0xwmB-1" value="item2.getWeight()" style="text;html=1;align=center;verticalAlign=middle;resizable=0;points=[];autosize=1;strokeColor=none;" vertex="1" parent="1">
          <mxGeometry x="517.5" y="307.5" width="110" height="20" as="geometry" />
        </mxCell>
        <mxCell id="Be6lSzht7YguLda0xwmB-2" value="return true" style="text;html=1;align=center;verticalAlign=middle;resizable=0;points=[];autosize=1;strokeColor=none;" vertex="1" parent="1">
          <mxGeometry x="710" y="357.5" width="70" height="20" as="geometry" />
        </mxCell>
      </root>
    </mxGraphModel>
  </diagram>
</mxfile>
